<svg 
 xmlns="http://www.w3.org/2000/svg"
 xmlns:xlink="http://www.w3.org/1999/xlink"
 width="260px" height="52px">
<defs>
<filter filterUnits="userSpaceOnUse" id="Filter_0" x="183px" y="34px" width="18px" height="18px"  >
    <feOffset in="SourceAlpha" dx="0" dy="1" />
    <feGaussianBlur result="blurOut" stdDeviation="1.414" />
    <feFlood flood-color="rgb(0, 0, 0)" result="floodOut" />
    <feComposite operator="atop" in="floodOut" in2="blurOut" />
    <feComponentTransfer><feFuncA type="linear" slope="0.17"/></feComponentTransfer>
    <feMerge>
    <feMergeNode/>
    <feMergeNode in="SourceGraphic"/>
  </feMerge>
</filter>
<filter filterUnits="userSpaceOnUse" id="Filter_1" x="50px" y="30px" width="16px" height="16px"  >
    <feOffset in="SourceAlpha" dx="0" dy="1" />
    <feGaussianBlur result="blurOut" stdDeviation="1.414" />
    <feFlood flood-color="rgb(0, 0, 0)" result="floodOut" />
    <feComposite operator="atop" in="floodOut" in2="blurOut" />
    <feComponentTransfer><feFuncA type="linear" slope="0.17"/></feComponentTransfer>
    <feMerge>
    <feMergeNode/>
    <feMergeNode in="SourceGraphic"/>
  </feMerge>
</filter>
<filter filterUnits="userSpaceOnUse" id="Filter_2" x="152px" y="8px" width="16px" height="16px"  >
    <feOffset in="SourceAlpha" dx="0" dy="1" />
    <feGaussianBlur result="blurOut" stdDeviation="1.414" />
    <feFlood flood-color="rgb(0, 0, 0)" result="floodOut" />
    <feComposite operator="atop" in="floodOut" in2="blurOut" />
    <feComponentTransfer><feFuncA type="linear" slope="0.17"/></feComponentTransfer>
    <feMerge>
    <feMergeNode/>
    <feMergeNode in="SourceGraphic"/>
  </feMerge>
</filter>
<filter filterUnits="userSpaceOnUse" id="Filter_3" x="216px" y="9px" width="19px" height="20px"  >
    <feOffset in="SourceAlpha" dx="0" dy="3" />
    <feGaussianBlur result="blurOut" stdDeviation="1.414" />
    <feFlood flood-color="rgb(0, 0, 0)" result="floodOut" />
    <feComposite operator="atop" in="floodOut" in2="blurOut" />
    <feComponentTransfer><feFuncA type="linear" slope="0.17"/></feComponentTransfer>
    <feMerge>
    <feMergeNode/>
    <feMergeNode in="SourceGraphic"/>
  </feMerge>
</filter>
<filter filterUnits="userSpaceOnUse" id="Filter_4" x="101px" y="20px" width="19px" height="20px"  >
    <feOffset in="SourceAlpha" dx="0" dy="3" />
    <feGaussianBlur result="blurOut" stdDeviation="1.414" />
    <feFlood flood-color="rgb(0, 0, 0)" result="floodOut" />
    <feComposite operator="atop" in="floodOut" in2="blurOut" />
    <feComponentTransfer><feFuncA type="linear" slope="0.17"/></feComponentTransfer>
    <feMerge>
    <feMergeNode/>
    <feMergeNode in="SourceGraphic"/>
  </feMerge>
</filter>
<filter filterUnits="userSpaceOnUse" id="Filter_5" x="4px" y="0px" width="20px" height="21px"  >
    <feOffset in="SourceAlpha" dx="0" dy="3" />
    <feGaussianBlur result="blurOut" stdDeviation="1.414" />
    <feFlood flood-color="rgb(0, 0, 0)" result="floodOut" />
    <feComposite operator="atop" in="floodOut" in2="blurOut" />
    <feComponentTransfer><feFuncA type="linear" slope="0.17"/></feComponentTransfer>
    <feMerge>
    <feMergeNode/>
    <feMergeNode in="SourceGraphic"/>
  </feMerge>
</filter>

</defs>
<g filter="url(#Filter_0)">
<path fill-rule="evenodd"  opacity="0.902" fill="rgb(233, 115, 76)"
 d="M192.500,33.1000 C196.642,33.1000 200.000,37.358 200.000,41.500 C200.000,45.642 196.642,49.000 192.500,49.000 C188.358,49.000 184.1000,45.642 184.1000,41.500 C184.1000,37.358 188.358,33.1000 192.500,33.1000 Z"/>
</g>
<g filter="url(#Filter_1)">
<path fill-rule="evenodd"  opacity="0.902" fill="rgb(231, 123, 174)"
 d="M58.500,29.1000 C62.090,29.1000 65.000,32.910 65.000,36.500 C65.000,40.090 62.090,43.000 58.500,43.000 C54.910,43.000 51.1000,40.090 51.1000,36.500 C51.1000,32.910 54.910,29.1000 58.500,29.1000 Z"/>
</g>
<g filter="url(#Filter_2)">
<path fill-rule="evenodd"  opacity="0.902" fill="rgb(255, 243, 103)"
 d="M160.500,7.1000 C164.090,7.1000 167.000,10.910 167.000,14.500 C167.000,18.090 164.090,21.000 160.500,21.000 C156.910,21.000 153.1000,18.090 153.1000,14.500 C153.1000,10.910 156.910,7.1000 160.500,7.1000 Z"/>
</g>
<text kerning="auto" font-family="Myriad Pro" fill="rgb(0, 0, 0)" font-size="40px" x="0px" y="35px"><tspan font-size="40px" font-family="Helvetica" fill="#16284E">confirma</tspan><tspan font-size="40px" font-family="Helvetica" fill="#FF469D">&#46;</tspan><tspan font-size="40px" font-family="Helvetica" fill="#16284E">party</tspan></text>
<g filter="url(#Filter_3)">
<path fill-rule="evenodd"  opacity="0.902" fill="rgb(102, 94, 163)"
 d="M227.000,8.1000 C231.418,8.1000 235.000,12.582 235.000,17.000 C235.000,21.418 231.418,25.000 227.000,25.000 C222.582,25.000 218.1000,21.418 218.1000,17.000 C218.1000,12.582 222.582,8.1000 227.000,8.1000 Z"/>
</g>
<g filter="url(#Filter_4)">
<path fill-rule="evenodd"  opacity="0.902" fill="rgb(71, 187, 234)"
 d="M112.000,19.1000 C116.418,19.1000 120.000,23.582 120.000,28.000 C120.000,32.418 116.418,36.000 112.000,36.000 C107.582,36.000 103.1000,32.418 103.1000,28.000 C103.1000,23.582 107.582,19.1000 112.000,19.1000 Z"/>
</g>
<g filter="url(#Filter_5)">
<path fill-rule="evenodd"  opacity="0.902" fill="rgb(174, 109, 168)"
 d="M15.500,-0.000 C20.194,-0.000 24.000,3.806 24.000,8.500 C24.000,13.194 20.194,17.000 15.500,17.000 C10.806,17.000 6.1000,13.194 6.1000,8.500 C6.1000,3.806 10.806,-0.000 15.500,-0.000 Z"/>
</g>
</svg>